<svg width="20" height="19" viewBox="0 0 20 19" fill="none" xmlns="http://www.w3.org/2000/svg">
<rect x="0.75" y="0.890625" width="18.5" height="16.5" rx="0.75" stroke="#F7EFDA" stroke-width="1.5"/>
<path d="M15.6428 5.41412H12.1351V4.51396H15.6433V5.41412H15.6428ZM9.79966 9.10589C10.0261 9.46814 10.1392 9.90786 10.1392 10.4242C10.1392 10.9581 10.0117 11.4372 9.75222 11.8604C9.58718 12.1403 9.38216 12.3769 9.13592 12.5672C8.85872 12.7874 8.53035 12.9384 8.15298 13.0191C7.77421 13.0998 7.36464 13.1406 6.92303 13.1406H3V4.14062H7.20676C8.26716 4.1583 9.01894 4.47588 9.46289 5.09913C9.72935 5.48146 9.86126 5.9403 9.86126 6.47355C9.86126 7.02384 9.72779 7.46404 9.45884 7.79848C9.3092 7.9862 9.08816 8.15671 8.79541 8.31052C9.23874 8.4783 9.5752 8.74236 9.79966 9.10589ZM5.00911 7.68904H6.85241C7.23118 7.68904 7.53746 7.61463 7.77328 7.46596C8.00894 7.31746 8.12654 7.05357 8.12654 6.67461C8.12654 6.25595 7.97083 5.97807 7.65864 5.84436C7.39031 5.75146 7.04701 5.70357 6.63028 5.70357H5.00911V7.68904ZM8.30387 10.2957C8.30387 9.82814 8.11892 9.50495 7.74979 9.33154C7.54337 9.23302 7.25218 9.18255 6.8787 9.17902H5.00896V11.5775H6.84992C7.22807 11.5775 7.52082 11.5264 7.7319 11.4197C8.11301 11.2233 8.30387 10.85 8.30387 10.2957ZM16.9445 8.83155C16.9868 9.12598 17.0061 9.55316 16.9983 10.1116H12.4551C12.4801 10.7595 12.6965 11.2127 13.1072 11.4719C13.3548 11.6346 13.6549 11.714 14.0064 11.714C14.3771 11.714 14.6792 11.6171 14.9117 11.4181C15.0384 11.3127 15.1502 11.1637 15.2468 10.9758H16.912C16.8684 11.3585 16.6679 11.7466 16.3075 12.141C15.7491 12.7678 14.9663 13.0821 13.9608 13.0821C13.1302 13.0821 12.398 12.8171 11.7627 12.2887C11.1295 11.7585 10.8114 10.8988 10.8114 9.70616C10.8114 8.58775 11.097 7.73179 11.67 7.13586C12.2451 6.5388 12.9874 6.2418 13.9024 6.2418C14.4446 6.2418 14.9335 6.34177 15.3697 6.5433C15.8044 6.74484 16.1636 7.06209 16.4467 7.49795C16.7029 7.88173 16.8675 8.32595 16.9445 8.83155ZM15.3053 8.99934C15.2748 8.55127 15.13 8.21232 14.8693 7.98057C14.6107 7.74802 14.2878 7.6315 13.9024 7.6315C13.483 7.6315 13.1591 7.75621 12.9289 8.0013C12.6973 8.24591 12.5531 8.57827 12.494 8.99934H15.3053Z" fill="#F7EFDA"/>
</svg>
