<svg width="115" height="101" viewBox="0 0 115 101" fill="none" xmlns="http://www.w3.org/2000/svg">
<path d="M51.2123 100.698V83.9081C51.5849 83.9081 51.9433 83.9121 52.3016 83.9081C57.2814 83.837 62.2674 83.9202 67.237 83.6542C74.4611 83.2683 81.0811 81.1257 86.5565 76.1905C91.0182 72.1713 93.7846 67.1854 95.0255 61.3627C96.5264 54.3215 96.7844 47.2275 94.8473 40.2654C91.7697 29.205 84.2836 22.2572 73.4352 18.7092C69.5283 17.4317 65.5088 16.7513 61.3849 16.7493C56.6078 16.7473 51.8306 16.7473 47.0535 16.7493C46.7894 16.7493 46.5232 16.7737 46.1669 16.792V64.7666H28.8828V0.0246115C29.2043 0.0246115 29.5299 0.0246115 29.8534 0.0246115C40.7386 0.0246115 51.6238 -0.0403782 62.507 0.0408589C72.7329 0.116003 82.4755 2.21395 91.2558 7.65075C103.118 14.9966 110.491 25.529 113.352 39.0875C115.778 50.5907 114.978 61.8908 110.506 72.8293C106.292 83.1383 98.8259 90.4558 88.9256 95.4559C82.6332 98.6343 75.921 100.275 68.8936 100.525C63.236 100.726 57.5702 100.677 51.9085 100.738C51.7078 100.74 51.5092 100.716 51.2102 100.698H51.2123Z" fill="#1D2B1A"/>
<path d="M0 0H17.7534V83.9142H53.1677V100.738H0V0Z" fill="#1D2B1A"/>
</svg>
