<svg width="20" height="20" viewBox="0 0 20 20" fill="none" xmlns="http://www.w3.org/2000/svg">
<path fill-rule="evenodd" clip-rule="evenodd" d="M18.9994 14.2558V16.9655C19.0005 17.217 18.9488 17.466 18.8479 17.6965C18.7469 17.927 18.5988 18.1339 18.413 18.304C18.2273 18.474 18.008 18.6035 17.7693 18.6841C17.5305 18.7647 17.2775 18.7946 17.0265 18.772C14.2415 18.47 11.5664 17.5202 9.21601 15.999C7.02929 14.6122 5.17534 12.7619 3.7858 10.5796C2.25627 8.22319 1.30442 5.54037 1.00735 2.74845C0.98473 2.49868 1.01447 2.24694 1.09468 2.00926C1.17489 1.77159 1.30381 1.55318 1.47323 1.36796C1.64265 1.18273 1.84885 1.03474 2.07872 0.933407C2.30858 0.832075 2.55707 0.779621 2.80837 0.779384H5.52347C5.96269 0.77507 6.3885 0.930297 6.72152 1.21613C7.05455 1.50197 7.27207 1.8989 7.33354 2.33296C7.44848 3.20007 7.66026 4.05183 7.96707 4.87107C8.08883 5.19436 8.11519 5.54571 8.043 5.8835C7.97082 6.22128 7.80313 6.53133 7.5598 6.77691L6.41041 7.92403C7.69877 10.1853 9.57482 12.0577 11.8406 13.3435L12.99 12.1964C13.2361 11.9535 13.5467 11.7862 13.8852 11.7141C14.2236 11.6421 14.5757 11.6684 14.8996 11.7899C15.7205 12.0961 16.5739 12.3075 17.4428 12.4222C17.8824 12.4841 18.2839 12.7051 18.5709 13.0431C18.858 13.3812 19.0105 13.8128 18.9994 14.2558Z" stroke="#F7EFDA" stroke-width="1.2" stroke-linecap="round" stroke-linejoin="round"/>
</svg>
