<svg width="334" height="1372" viewBox="0 0 334 1372" fill="none" xmlns="http://www.w3.org/2000/svg">
<path d="M154.467 0.200195C216.795 0.200195 262.187 13.7476 290.641 40.8425C319.547 67.4858 334 104.29 334 151.254C334 172.478 330.838 192.8 324.515 212.218C318.192 231.184 307.578 248.344 292.673 263.698C278.22 278.6 259.025 290.341 235.087 298.921C211.149 307.501 181.566 311.791 146.337 311.791H102.3V1362.73L0 1371.2V0.200195H154.467ZM149.047 84.1943H102.3V227.797H136.174C155.596 227.797 172.307 225.313 186.308 220.346C200.31 215.379 211.149 207.476 218.828 196.638C226.506 185.8 230.345 171.801 230.345 154.641C230.345 130.707 223.796 113.096 210.698 101.806C197.6 90.0649 177.049 84.1943 149.047 84.1943Z" fill="#1D2B1A"/>
</svg>
