<svg width="20" height="19" viewBox="0 0 20 19" fill="none" xmlns="http://www.w3.org/2000/svg">
<path fill-rule="evenodd" clip-rule="evenodd" d="M5.78209 15.0547V7.03437H3V15.0547H5.78209ZM4.49493 5.82031C5.4223 5.82031 6 5.20625 6 4.4375C5.9848 3.65469 5.4223 3.05469 4.51013 3.05469C3.59797 3.05469 3.00507 3.65469 3.00507 4.4375C3.00507 5.20625 3.58277 5.82031 4.47466 5.82031H4.49493Z" fill="#F7EFDA"/>
<path fill-rule="evenodd" clip-rule="evenodd" d="M13.6036 6.05469C12.0446 6.05469 11.375 6.89812 10.9464 7.4844V6.2604H8V15.0547H10.9464V10.0455C10.9464 9.7884 10.9679 9.53126 11.0482 9.35126C11.2625 8.83697 11.7446 8.30726 12.5589 8.30726C13.625 8.30726 14.0536 9.09412 14.0536 10.2461V15.0547H17V9.91697C17 7.27869 15.5429 6.05469 13.6036 6.05469Z" fill="#F7EFDA"/>
<path d="M18.4006 0.0546875H1.70878C0.797082 0.0546875 0 0.645467 0 1.45662V16.5121C0 17.3279 0.797082 18.0547 1.70878 18.0547H18.3954C19.3123 18.0547 20 17.3232 20 16.5121V1.45662C20.0052 0.645467 19.3123 0.0546875 18.4006 0.0546875ZM18.2339 16.559H1.8286C1.73482 16.559 1.6671 16.4933 1.6671 16.4136V1.64885C1.6671 1.59728 1.7192 1.55508 1.77129 1.55508H18.2339C18.286 1.55508 18.3381 1.60197 18.3381 1.64885V16.4652C18.3381 16.5074 18.2912 16.559 18.2339 16.559Z" fill="#F7EFDA"/>
</svg>
