<svg width="28" height="18" viewBox="0 0 28 18" fill="none" xmlns="http://www.w3.org/2000/svg">
<path d="M0.640578 0.00139556C0.455171 0.0239876 0.285547 0.11649 0.166687 0.259828C0.0478263 0.403166 -0.0112066 0.586409 0.00176051 0.77177V17.2746C0.00176051 17.467 0.0785909 17.6515 0.215351 17.7875C0.352111 17.9236 0.537597 18 0.731005 18H27.258C27.4514 18 27.6369 17.9236 27.7737 17.7875C27.9104 17.6515 27.9873 17.467 27.9873 17.2746V0.861719C28.0074 0.75583 28.0036 0.646801 27.9761 0.542557C27.9486 0.438314 27.8981 0.341477 27.8283 0.259083C27.7584 0.17669 27.671 0.110812 27.5724 0.0662375C27.4737 0.021663 27.3663 -0.000488223 27.258 0.00139556H13.9945L0.868103 0.0463705C0.824011 0.0269053 0.778087 0.0118397 0.731005 0.00139556C0.700892 -0.000465187 0.670692 -0.000465187 0.640578 0.00139556ZM13.9945 1.45219H24.7509L13.9945 8.16214L3.28336 1.49717L13.9945 1.45219ZM1.46025 2.04122L13.6299 9.61293C13.7459 9.68528 13.8801 9.72365 14.0171 9.72365C14.1541 9.72365 14.2883 9.68528 14.4043 9.61293L26.5288 2.04122V16.5492H1.46025V2.04122Z" fill="#F7EFDA"/>
</svg>
